<svg width="51" height="68" viewBox="0 0 51 68" fill="none" xmlns="http://www.w3.org/2000/svg">
<path fill-rule="evenodd" clip-rule="evenodd" d="M0.5 0.333313H0V0.833313V66.8333V67.3333H0.5H24.5C27.999 67.3333 31.4595 66.4583 34.6824 64.7639C37.9047 63.0699 40.8239 60.5915 43.2775 57.4773C45.731 54.3632 47.6728 50.6722 48.9962 46.617C50.3196 42.5617 51 38.2181 51 33.8333C51 29.4486 50.3196 25.1049 48.9962 21.0496C47.6728 16.9945 45.731 13.3034 43.2775 10.1894C40.8239 7.07517 37.9047 4.59676 34.6824 2.90272C31.4595 1.2083 27.999 0.333313 24.5 0.333313H0.5ZM24.5 66.3333C27.8297 66.3333 31.1311 65.5012 34.2171 63.8788C37.3038 62.256 40.117 59.8729 42.492 56.8584C44.8672 53.8438 46.7557 50.2591 48.0455 46.3067C49.3353 42.3545 50 38.1158 50 33.8333C50 29.5508 49.3353 25.3121 48.0455 21.3599C46.7557 17.4076 44.8672 13.8228 42.492 10.8082C40.117 7.79374 37.3038 5.41062 34.2171 3.78785C31.1311 2.16546 27.8297 1.33331 24.5 1.33331H1V66.3333H24.5Z" fill="#FF0000"/>
</svg>
