<svg width="49" height="69" viewBox="0 0 49 69" fill="none" xmlns="http://www.w3.org/2000/svg">
<path fill-rule="evenodd" clip-rule="evenodd" d="M1 44.3333V0.333313H0V44.3333C0 47.5507 0.633711 50.7366 1.86495 53.7091C3.09619 56.6815 4.90085 59.3824 7.17588 61.6574C9.45092 63.9325 12.1518 65.7371 15.1243 66.9684C18.0967 68.1996 21.2826 68.8333 24.5 68.8333C27.7174 68.8333 30.9033 68.1996 33.8757 66.9684C36.8482 65.7371 39.5491 63.9325 41.8241 61.6574C44.0992 59.3824 45.9038 56.6815 47.135 53.7091C48.3663 50.7366 49 47.5507 49 44.3333V0.333313H48V44.3333C48 47.4194 47.3922 50.4752 46.2112 53.3264C45.0302 56.1775 43.2992 58.7681 41.117 60.9503C38.9348 63.1325 36.3442 64.8635 33.4931 66.0445C30.6419 67.2255 27.5861 67.8333 24.5 67.8333C21.4139 67.8333 18.3581 67.2255 15.5069 66.0445C12.6558 64.8635 10.0652 63.1325 7.88299 60.9503C5.70081 58.7681 3.96982 56.1775 2.78883 53.3264C1.60784 50.4752 1 47.4194 1 44.3333Z" fill="#FF0000"/>
</svg>
